<?xml version="1.0" ?><svg width="64px" height="64px" viewBox="0 0 64 64" xmlns="http://www.w3.org/2000/svg"><defs><style>.cls-1{fill:#ccc;}.cls-2{fill:#f2f2f2;}.cls-3{fill:#849eb4;}.cls-4{fill:#b0d3f0;}.cls-5{fill:#98856e;}.cls-6{fill:#cbb292;}.cls-7{fill:#5f443e;}.cls-8{fill:#7f5b53;}.cls-9{fill:#e64c3c;}.cls-10{fill:#b49313;}.cls-11{fill:#f0c419;}.cls-12{fill:none;stroke:#000;stroke-linejoin:round;stroke-width:2px;}</style></defs><title/><g data-name="Layer 10" id="Layer_10"><polygon class="cls-1" points="18 38 32 24 46 38 46 58 18 58 18 38"/><polygon class="cls-2" points="30.5 25.5 18 38 18 58 43 58 43 38 30.5 25.5"/><rect class="cls-3" height="4" width="6" x="35" y="38"/><rect class="cls-4" height="4" width="3" x="35" y="38"/><rect class="cls-3" height="4" width="6" x="23" y="38"/><rect class="cls-4" height="4" width="3" x="23" y="38"/><polyline class="cls-5" points="28 58 28 46 36 46 36 58"/><rect class="cls-6" height="12" width="5" x="28" y="46"/><rect class="cls-5" height="12" width="14" x="46" y="46"/><rect class="cls-6" height="12" width="11" x="46" y="46"/><rect class="cls-5" height="12" width="14" x="4" y="46"/><rect class="cls-6" height="12" width="11" x="4" y="46"/><rect class="cls-7" height="4" width="60" x="2" y="58"/><rect class="cls-8" height="4" width="57" x="2" y="58"/><polygon class="cls-9" points="12 38 32 18 52 38 46 38 32 24 18 38 12 38"/><circle class="cls-10" cx="32" cy="8" r="6"/><ellipse class="cls-11" cx="30.5" cy="8" rx="4.5" ry="5.8"/><path class="cls-3" d="M38,10a3.94,3.94,0,0,1,1.09.17A4,4,0,0,1,43,7a3.93,3.93,0,0,1,2.48.89A5,5,0,0,1,55,10c0,.05,0,.1,0,.15A3.74,3.74,0,0,1,56,10a4,4,0,1,1-2.58,7,4,4,0,0,1-6.84,0A3.95,3.95,0,0,1,41,16.62,4,4,0,1,1,38,10Z"/><path class="cls-4" d="M58.29,17.27A4,4,0,0,0,54.7,15a3.74,3.74,0,0,0-1,.15c0-.05,0-.1,0-.15a5,5,0,0,0-9.51-2.11A4,4,0,0,0,41.7,12a4,4,0,0,0-3.91,3.17,3.83,3.83,0,0,0-3.38.56,4,4,0,0,0,6.59.89,3.95,3.95,0,0,0,5.58.42,4,4,0,0,0,6.84,0,4,4,0,0,0,4.87.23Z"/><path class="cls-3" d="M26,7a3.94,3.94,0,0,0-1.09.17A4,4,0,0,0,21,4a3.93,3.93,0,0,0-2.48.89A5,5,0,0,0,9,7s0,.1,0,.15A3.74,3.74,0,0,0,8,7a4,4,0,1,0,2.58,7,4,4,0,0,0,6.84,0A3.95,3.95,0,0,0,23,13.62,4,4,0,1,0,26,7Z"/><path class="cls-4" d="M5.71,14.27A4,4,0,0,1,9.3,12a3.74,3.74,0,0,1,1,.15c0-.05,0-.1,0-.15a5,5,0,0,1,9.51-2.11A4,4,0,0,1,22.3,9a4,4,0,0,1,3.91,3.17,3.83,3.83,0,0,1,3.38.56,4,4,0,0,1-6.59.89,3.95,3.95,0,0,1-5.58.42,4,4,0,0,1-6.84,0,4,4,0,0,1-4.87.23Z"/><rect class="cls-12" height="4" width="60" x="2" y="58"/><polyline class="cls-12" points="46 38 46 58 18 58 18 38"/><polygon class="cls-12" points="12 38 32 18 52 38 46 38 32 24 18 38 12 38"/><polyline class="cls-12" points="46 46 60 46 60 58"/><polyline class="cls-12" points="18 46 4 46 4 58"/><line class="cls-12" x1="4" x2="18" y1="50" y2="50"/><line class="cls-12" x1="46" x2="60" y1="50" y2="50"/><polyline class="cls-12" points="28 58 28 46 36 46 36 58"/><rect class="cls-12" height="4" width="6" x="23" y="38"/><rect class="cls-12" height="4" width="6" x="35" y="38"/><path class="cls-12" d="M26,7a3.94,3.94,0,0,0-1.09.17A4,4,0,0,0,21,4a3.93,3.93,0,0,0-2.48.89A5,5,0,0,0,9,7s0,.1,0,.15A3.74,3.74,0,0,0,8,7a4,4,0,1,0,2.58,7,4,4,0,0,0,6.84,0A3.95,3.95,0,0,0,23,13.62,4,4,0,1,0,26,7Z"/><path class="cls-12" d="M38,10a3.94,3.94,0,0,1,1.09.17A4,4,0,0,1,43,7a3.93,3.93,0,0,1,2.48.89A5,5,0,0,1,55,10c0,.05,0,.1,0,.15A3.74,3.74,0,0,1,56,10a4,4,0,1,1-2.58,7,4,4,0,0,1-6.84,0A3.95,3.95,0,0,1,41,16.62,4,4,0,1,1,38,10Z"/><path class="cls-12" d="M34.12,13.62A6.18,6.18,0,0,1,32,14a5.91,5.91,0,0,1-2.75-.67"/><path class="cls-12" d="M26.08,7A6,6,0,0,1,38,8a5.87,5.87,0,0,1-.35,2"/></g></svg>